<?xml version="1.0" encoding="utf-8"?>
<!-- Generator: Adobe Illustrator 26.3.1, SVG Export Plug-In . SVG Version: 6.00 Build 0)  -->
<svg version="1.1" id="Layer_1" xmlns="http://www.w3.org/2000/svg" xmlns:xlink="http://www.w3.org/1999/xlink" x="0px" y="0px"
	 viewBox="0 0 52 52" style="enable-background:new 0 0 52 52;" xml:space="preserve">
<style type="text/css"> 
.st0{fill:#FFFFFF;stroke:#000000;stroke-width:1;stroke-miterlimit:10; }
</style>
<path class="st0" d="M37.9,14.9H14.1c-2,0-3.7,1.6-3.7,3.7v14.8c0,2,1.6,3.7,3.7,3.7h23.7c2,0,3.7-1.6,3.7-3.7V18.6
	C41.5,16.6,39.9,14.9,37.9,14.9z M38.7,19.3L32.1,26l5.1,5.1c0.4,0.4,0.4,1.2,0,1.6c-0.2,0.2-0.5,0.3-0.8,0.3
	c-0.3,0-0.6-0.1-0.8-0.3l-5.1-5.1L29,29.1c-0.8,0.8-1.9,1.2-3,1.2c-1.1,0-2.2-0.4-3-1.2l-1.5-1.5l-5.1,5.1C16.3,32.9,16,33,15.7,33
	c-0.3,0-0.6-0.1-0.8-0.3c-0.4-0.4-0.4-1.2,0-1.6l5.1-5.1l-6.7-6.7c-0.4-0.4-0.4-1.2,0-1.6c0.4-0.4,1.2-0.4,1.6,0l9.7,9.7
	c0.7,0.7,2,0.7,2.7,0l9.7-9.7c0.4-0.4,1.2-0.4,1.6,0C39.2,18.2,39.2,18.9,38.7,19.3z"/>
</svg>
