<?xml version="1.0" encoding="utf-8"?>
<!-- Generator: Adobe Illustrator 15.1.0, SVG Export Plug-In . SVG Version: 6.00 Build 0)  -->
<!DOCTYPE svg PUBLIC "-//W3C//DTD SVG 1.1//EN" "http://www.w3.org/Graphics/SVG/1.1/DTD/svg11.dtd">
<svg version="1.1" id="Layer_1" xmlns="http://www.w3.org/2000/svg" xmlns:xlink="http://www.w3.org/1999/xlink" x="0px" y="0px"
	 width="49px" height="49px" viewBox="0 0 49 49" enable-background="new 0 0 49 49" xml:space="preserve">
<path fill="#FFFFFF" d="M46.271,28.692c0,0-0.246,3.195-2.951,3.072H20.332c0,0-2.827,1.721-2.827,2.825H44.55
	c0,0,0.123,2.58-1.968,3.071h-1.708c0.61,0.64,0.992,1.503,0.992,2.457c0,1.968-1.597,3.562-3.563,3.562s-3.562-1.596-3.562-3.562
	c0-0.954,0.38-1.817,0.991-2.457H24.376c0.61,0.64,0.992,1.503,0.992,2.457c0,1.968-1.596,3.562-3.562,3.562
	c-1.968,0-3.562-1.596-3.562-3.562c0-0.954,0.38-1.817,0.992-2.457h-0.747c0,0-3.688,0-4.057-2.949c0,0-0.614-2.087,2.826-4.176
	L10.99,12.723c0,0-1.353-3.686-5.533-3.932L1.647,8.3c0,0-2.582-0.86,0-2.826c0,0,7.829-1.37,11.433,4.054
	c0,0,1.401,2.98,3.069,7.74c1.712,4.882,3.69,11.547,3.69,11.547h23.355l2.354-14.674H48.5L46.271,28.692z"/>
</svg>
