<svg version="1.1" id="Twitter3" xmlns="http://www.w3.org/2000/svg" xmlns:xlink="http://www.w3.org/1999/xlink" x="0px" y="0px" width="13px" height="14px" viewBox="60.042 60.07 24 23.861" enable-background="new 60.042 60.07 24 23.861" xml:space="preserve">												<path fill="#ffffff" d="M82.502,63.223c0,0-0.749,0.956-2.955,1.29c0,0-2.162-2.414-5.406-0.916c0,0-2.871,1.414-2.206,5.075&#9;&#9;&#9;&#9;&#9;&#9;&#9;&#9;&#9;&#9;&#9;  c0,0-5.282,0.248-9.4-4.868c0,0-1.952,3.451,1.458,6.114c0,0-0.751,0.208-2.122-0.582c0,0,0.042,3.494,3.786,4.532&#9;&#9;&#9;&#9;&#9;&#9;&#9;&#9;&#9;&#9;&#9;  c0,0-1.039,0.291-2.248,0c0,0,1.123,3.204,4.452,3.078c0,0-2.456,2.374-6.821,1.914c0,0,4.447,3.244,10.856,1.54&#9;&#9;&#9;&#9;&#9;&#9;&#9;&#9;&#9;&#9;&#9;  c0,0,8.65-2.623,8.858-12.851c0,0,1.58-1.292,2.285-2.33c0,0-1.578,0.831-2.577,0.706C80.462,65.925,82.46,64.137,82.502,63.223z"/>											</svg>