<svg id="Layer_1" data-name="Layer 1" xmlns="http://www.w3.org/2000/svg" viewBox="0 0 13.97 25.89"><defs><style>.cls-1{fill:#82828d;}</style></defs><title>arrow-rt1</title><path class="cls-1" d="M22.89,18.5,10.79,6.38a.68.68,0,0,1,0-1l.32-.27a.82.82,0,0,1,1.1.05L24.34,17.26a.67.67,0,0,1,0,1l-.31.27A.83.83,0,0,1,22.89,18.5Z" transform="translate(-10.58 -4.91)"/><path class="cls-1" d="M22.83,17.12l-12,12.22a.67.67,0,0,0,.05,1l.32.27a.81.81,0,0,0,1.09-.06l12-12.21a.69.69,0,0,0,0-1l-.32-.27A.83.83,0,0,0,22.83,17.12Z" transform="translate(-10.58 -4.91)"/></svg>