<?xml version="1.0" encoding="utf-8"?>
<!-- Generator: Adobe Illustrator 16.0.0, SVG Export Plug-In . SVG Version: 6.00 Build 0)  -->
<!DOCTYPE svg PUBLIC "-//W3C//DTD SVG 1.1//EN" "http://www.w3.org/Graphics/SVG/1.1/DTD/svg11.dtd">
<svg version="1.1" id="Layer_1" xmlns="http://www.w3.org/2000/svg" xmlns:xlink="http://www.w3.org/1999/xlink" x="0px" y="0px"
	 width="17px" height="17px" viewBox="0 0 17 17" enable-background="new 0 0 17 17" xml:space="preserve">
<path fill-rule="evenodd" clip-rule="evenodd" fill="#5B3600" d="M10.648,11.361c-0.844,0.602-1.876,0.955-2.99,0.955
	c-2.848,0-5.157-2.31-5.157-5.158s2.31-5.157,5.157-5.157c2.849,0,5.157,2.309,5.157,5.157c0,1.114-0.353,2.146-0.954,2.99
	l3.388,3.388c0.335,0.335,0.332,0.868,0,1.199l-0.014,0.015c-0.331,0.33-0.868,0.331-1.199,0L10.648,11.361L10.648,11.361z
	 M7.658,10.931c2.082,0,3.771-1.689,3.771-3.772c0-2.083-1.689-3.772-3.771-3.772c-2.083,0-3.771,1.688-3.771,3.772
	C3.887,9.241,5.575,10.931,7.658,10.931L7.658,10.931z"/>
</svg>
