<svg version="1.1" xmlns="http://www.w3.org/2000/svg" xmlns:xlink="http://www.w3.org/1999/xlink" x="0px" y="0px" width="18px" height="18px" viewBox="-2 -2 18 18" enable-background="new -2 -2 18 18" xml:space="preserve">												<path fill="#FFFFFF" d="M13.331,13.203c0,0-0.092,1.602-2.608,1.679c0,0-6.458,0.324-8.197-0.104c0,0-1.877-0.166-1.971-2.121&#9;&#9;&#9;  c0,0-0.09-1.926,0.078-4.38c0,0,0.077-1.526,1.618-1.694c0,0,4.839-0.518,9.585,0.017c0,0,1.466,0.136,1.587,1.783&#9;&#9;&#9;  C13.423,8.377,13.574,11.676,13.331,13.203z M4.27,8.07H1.888v0.678h0.826v4.489h0.735V8.748h0.823L4.27,8.07L4.27,8.07z&#9;&#9;&#9;   M6.852,9.415H6.109v2.92l-0.292,0.208c-0.292,0.192-0.353-0.075-0.353-0.075V9.425H4.733v3.324&#9;&#9;&#9;  c0.062,0.522,0.486,0.549,0.486,0.549c0.451,0.06,0.914-0.512,0.914-0.512v0.391H6.85L6.852,9.415L6.852,9.415z M9.573,9.979&#9;&#9;&#9;  c0,0-0.071-0.471-0.595-0.582c0,0-0.523-0.034-0.859,0.447V8.099H7.44v5.167h0.679v-0.388c0.067,0.078,0.389,0.414,0.901,0.428&#9;&#9;&#9;  c0,0,0.471-0.04,0.555-0.582V9.979H9.573z M12.179,12.018h-0.693v0.429c0,0-0.015,0.306-0.306,0.263c0,0-0.332,0.126-0.458-0.275&#9;&#9;&#9;  l0.014-1.039h1.416v-1.262c0,0-0.018-0.718-1.057-0.83c0,0-0.773,0-1.039,0.912v2.164c0,0,0.058,0.93,1.124,0.984&#9;&#9;&#9;  C11.18,13.36,12.247,13.39,12.179,12.018z M11.108,9.911c0.389,0.019,0.352,0.514,0.352,0.514v0.387h-0.725v-0.416&#9;&#9;&#9;  C10.795,9.885,11.108,9.911,11.108,9.911z M8.59,12.709c0,0-0.249,0.037-0.468-0.325v-2.307c0,0,0.29-0.333,0.554-0.208&#9;&#9;&#9;  c0,0,0.164,0.042,0.195,0.318v2.313C8.868,12.502,8.883,12.696,8.59,12.709z M10.305,4.29c0,0-0.521,0.649-1.038,0.582&#9;&#9;&#9;  c0,0-0.482-0.028-0.555-0.624v-3.78h0.83V3.93c0,0,0.07,0.304,0.4,0.083l0.335-0.236V0.453h0.844v4.281h-0.816V4.29z M6.777,4.926&#9;&#9;&#9;  c-0.657,0-1.192-0.533-1.192-1.191V1.519c0-0.658,0.533-1.192,1.192-1.192c0.658,0,1.194,0.534,1.194,1.192v2.216&#9;&#9;&#9;  C7.971,4.393,7.435,4.926,6.777,4.926z M7.178,1.492c0-0.222-0.18-0.401-0.401-0.401c-0.222,0-0.401,0.179-0.401,0.401v2.231&#9;&#9;&#9;  c0,0.222,0.179,0.401,0.401,0.401c0.222,0,0.401-0.181,0.401-0.401V1.492z M4.367,4.719H3.423v-2.41l-1.19-3.296h1.039l0.595,2.313&#9;&#9;&#9;  L4.462-1h1.054L4.367,2.268V4.719z"/>											</svg>