<svg version="1.1" id="Twitter4" xmlns="http://www.w3.org/2000/svg" xmlns:xlink="http://www.w3.org/1999/xlink" x="0px" y="0px" width="13px" height="14px" viewBox="60.042 60.07 24 23.861" enable-background="new 60.042 60.07 24 23.861" xml:space="preserve">												<path fill="#ffffff" d="M83.042,82.514v-8.135c0-4.359-2.327-6.387-5.429-6.387c-2.503,0-3.625,1.377-4.25,2.343v-2.01h-4.717&#9;&#9;&#9;&#9;&#9;&#9;&#9;&#9;&#9;&#9;&#9;  c0.063,1.332,0,14.188,0,14.188h4.717V74.59c0-0.423,0.03-0.847,0.155-1.149c0.341-0.848,1.116-1.725,2.418-1.725&#9;&#9;&#9;&#9;&#9;&#9;&#9;&#9;&#9;&#9;&#9;  c1.708,0,2.39,1.301,2.39,3.208v7.591L83.042,82.514L83.042,82.514z M63.678,66.389c1.644,0,2.668-1.091,2.668-2.453&#9;&#9;&#9;&#9;&#9;&#9;&#9;&#9;&#9;&#9;&#9;  c-0.031-1.391-1.024-2.451-2.637-2.451s-2.668,1.059-2.668,2.451c0,1.362,1.024,2.453,2.607,2.453H63.678z M66.036,82.514V68.326&#9;&#9;&#9;&#9;&#9;&#9;&#9;&#9;&#9;&#9;&#9;  h-4.715v14.188H66.036z"/>											</svg>